{
    "asset" : {
        "generator" : "Khronos glTF Blender I/O v3.3.27",
        "version" : "2.0"
    },
    "extensionsUsed" : [
        "KHR_materials_specular",
        "KHR_materials_ior"
    ],
    "scene" : 0,
    "scenes" : [
        {
            "name" : "Scene",
            "nodes" : [
                0,
                1,
                2,
                3
            ]
        }
    ],
    "nodes" : [
        {
            "mesh" : 0,
            "name" : "\u5706\u73af.001",
            "rotation" : [
                0.7071068286895752,
                0,
                0,
                0.7071068286895752
            ],
            "scale" : [
                1.671366572380066,
                1.671366572380066,
                1.671366572380066
            ],
            "translation" : [
                0,
                1.898573398590088,
                0.01611107587814331
            ]
        },
        {
            "mesh" : 1,
            "name" : "\u5706\u73af",
            "rotation" : [
                0.7071068286895752,
                0,
                0,
                0.7071068286895752
            ],
            "scale" : [
                1.8691768646240234,
                1.8691768646240234,
                1.8691768646240234
            ],
            "translation" : [
                0,
                1.898573398590088,
                0.08176052570343018
            ]
        },
        {
            "name" : "Material_Preview_Dummy"
        },
        {
            "mesh" : 2,
            "name" : "\u5706\u73af.002",
            "rotation" : [
                0.7071068286895752,
                0,
                0,
                0.7071068286895752
            ],
            "scale" : [
                1.8691768646240234,
                1.8691768646240234,
                1.8691768646240234
            ],
            "translation" : [
                0,
                1.898573398590088,
                -0.09787151217460632
            ]
        }
    ],
    "materials" : [
        {
            "doubleSided" : true,
            "extensions" : {
                "KHR_materials_specular" : {
                    "specularColorFactor" : [
                        0.7940784574957024,
                        0.7940784574957024,
                        0.7940784574957024
                    ]
                },
                "KHR_materials_ior" : {
                    "ior" : 1.4500000476837158
                }
            },
            "name" : "\u6750\u8d28.004",
            "pbrMetallicRoughness" : {
                "baseColorFactor" : [
                    0.35751286149024963,
                    0.8000000715255737,
                    0.09985202550888062,
                    0.5963302850723267
                ],
                "metallicFactor" : 0,
                "roughnessFactor" : 0.857798159122467
            }
        },
        {
            "alphaMode" : "BLEND",
            "doubleSided" : true,
            "name" : "Basic Glass",
            "pbrMetallicRoughness" : {}
        },
        {
            "alphaMode" : "BLEND",
            "doubleSided" : true,
            "name" : "Basic Glass.001",
            "pbrMetallicRoughness" : {}
        }
    ],
    "meshes" : [
        {
            "name" : "\u5706\u73af.002",
            "primitives" : [
                {
                    "attributes" : {
                        "POSITION" : 0,
                        "NORMAL" : 1,
                        "TEXCOORD_0" : 2
                    },
                    "indices" : 3,
                    "material" : 0
                }
            ]
        },
        {
            "name" : "\u5706\u73af.003",
            "primitives" : [
                {
                    "attributes" : {
                        "POSITION" : 4,
                        "NORMAL" : 5,
                        "TEXCOORD_0" : 6
                    },
                    "indices" : 7,
                    "material" : 1
                }
            ]
        },
        {
            "name" : "\u5706\u73af.004",
            "primitives" : [
                {
                    "attributes" : {
                        "POSITION" : 8,
                        "NORMAL" : 9,
                        "TEXCOORD_0" : 10
                    },
                    "indices" : 11,
                    "material" : 2
                }
            ]
        }
    ],
    "accessors" : [
        {
            "bufferView" : 0,
            "componentType" : 5126,
            "count" : 192,
            "max" : [
                1.0495344400405884,
                0,
                0.8314695954322815
            ],
            "min" : [
                -1.0495344400405884,
                -0.04260847717523575,
                -1
            ],
            "type" : "VEC3"
        },
        {
            "bufferView" : 1,
            "componentType" : 5126,
            "count" : 192,
            "type" : "VEC3"
        },
        {
            "bufferView" : 2,
            "componentType" : 5126,
            "count" : 192,
            "type" : "VEC2"
        },
        {
            "bufferView" : 3,
            "componentType" : 5123,
            "count" : 372,
            "type" : "SCALAR"
        },
        {
            "bufferView" : 4,
            "componentType" : 5126,
            "count" : 192,
            "max" : [
                1,
                0.03160044923424721,
                1
            ],
            "min" : [
                -1,
                0,
                -1
            ],
            "type" : "VEC3"
        },
        {
            "bufferView" : 5,
            "componentType" : 5126,
            "count" : 192,
            "type" : "VEC3"
        },
        {
            "bufferView" : 6,
            "componentType" : 5126,
            "count" : 192,
            "type" : "VEC2"
        },
        {
            "bufferView" : 7,
            "componentType" : 5123,
            "count" : 372,
            "type" : "SCALAR"
        },
        {
            "bufferView" : 8,
            "componentType" : 5126,
            "count" : 192,
            "max" : [
                1,
                0,
                1
            ],
            "min" : [
                -1,
                -0.021066971123218536,
                -1
            ],
            "type" : "VEC3"
        },
        {
            "bufferView" : 9,
            "componentType" : 5126,
            "count" : 192,
            "type" : "VEC3"
        },
        {
            "bufferView" : 10,
            "componentType" : 5126,
            "count" : 192,
            "type" : "VEC2"
        },
        {
            "bufferView" : 11,
            "componentType" : 5123,
            "count" : 372,
            "type" : "SCALAR"
        }
    ],
    "bufferViews" : [
        {
            "buffer" : 0,
            "byteLength" : 2304,
            "byteOffset" : 0,
            "target" : 34962
        },
        {
            "buffer" : 0,
            "byteLength" : 2304,
            "byteOffset" : 2304,
            "target" : 34962
        },
        {
            "buffer" : 0,
            "byteLength" : 1536,
            "byteOffset" : 4608,
            "target" : 34962
        },
        {
            "buffer" : 0,
            "byteLength" : 744,
            "byteOffset" : 6144,
            "target" : 34963
        },
        {
            "buffer" : 0,
            "byteLength" : 2304,
            "byteOffset" : 6888,
            "target" : 34962
        },
        {
            "buffer" : 0,
            "byteLength" : 2304,
            "byteOffset" : 9192,
            "target" : 34962
        },
        {
            "buffer" : 0,
            "byteLength" : 1536,
            "byteOffset" : 11496,
            "target" : 34962
        },
        {
            "buffer" : 0,
            "byteLength" : 744,
            "byteOffset" : 13032,
            "target" : 34963
        },
        {
            "buffer" : 0,
            "byteLength" : 2304,
            "byteOffset" : 13776,
            "target" : 34962
        },
        {
            "buffer" : 0,
            "byteLength" : 2304,
            "byteOffset" : 16080,
            "target" : 34962
        },
        {
            "buffer" : 0,
            "byteLength" : 1536,
            "byteOffset" : 18384,
            "target" : 34962
        },
        {
            "buffer" : 0,
            "byteLength" : 744,
            "byteOffset" : 19920,
            "target" : 34963
        }
    ],
    "buffers" : [
        {
            "byteLength" : 20664,
            "uri" : "Blender_Project_Files_V1.bin"
        }
    ]
}
