{
    "asset" : {
        "generator" : "Khronos glTF Blender I/O v3.3.27",
        "version" : "2.0"
    },
    "extensionsUsed" : [
        "KHR_materials_specular",
        "KHR_materials_ior"
    ],
    "scene" : 0,
    "scenes" : [
        {
            "name" : "Scene",
            "nodes" : [
                0,
                1,
                2,
                3,
                4,
                5
            ]
        }
    ],
    "nodes" : [
        {
            "mesh" : 0,
            "name" : "body",
            "translation" : [
                0,
                1.2928555011749268,
                0
            ]
        },
        {
            "mesh" : 1,
            "name" : "shell",
            "scale" : [
                1.0674185752868652,
                1.0674185752868652,
                1.0674185752868652
            ],
            "translation" : [
                0.4919368028640747,
                1.2928555011749268,
                0
            ]
        },
        {
            "mesh" : 2,
            "name" : "eb",
            "rotation" : [
                0,
                0,
                -0.7071067094802856,
                0.7071068286895752
            ],
            "scale" : [
                0.717747688293457,
                0.717747688293457,
                0.717747688293457
            ],
            "translation" : [
                0.387478768825531,
                4.974090576171875,
                -0.8619034886360168
            ]
        },
        {
            "mesh" : 3,
            "name" : "el",
            "scale" : [
                0.717747688293457,
                0.717747688293457,
                0.717747688293457
            ],
            "translation" : [
                0.387478768825531,
                4.974090576171875,
                -0.8619034886360168
            ]
        },
        {
            "mesh" : 4,
            "name" : "tooth",
            "rotation" : [
                0,
                0,
                0.19800296425819397,
                0.9802014231681824
            ],
            "scale" : [
                0.06138216331601143,
                0.15650658309459686,
                0.15650658309459686
            ],
            "translation" : [
                2.8037123680114746,
                1.8481030464172363,
                0
            ]
        },
        {
            "mesh" : 5,
            "name" : "tongue",
            "rotation" : [
                -0.10431080311536789,
                -0.9945447444915771,
                0,
                1.4015077987039604e-08
            ],
            "scale" : [
                -0.2805384695529938,
                -0.05261227488517761,
                -0.2805384397506714
            ],
            "translation" : [
                2.705314874649048,
                1.5764470100402832,
                -0.009742550551891327
            ]
        }
    ],
    "materials" : [
        {
            "doubleSided" : true,
            "extensions" : {
                "KHR_materials_specular" : {
                    "specularColorFactor" : [
                        0.8811007338772692,
                        0.8811007338772692,
                        0.8811007338772692
                    ]
                },
                "KHR_materials_ior" : {
                    "ior" : 1.4500000476837158
                }
            },
            "name" : "\u6750\u8d28.003",
            "pbrMetallicRoughness" : {
                "baseColorFactor" : [
                    0.4999251663684845,
                    0.9203413128852844,
                    1,
                    1
                ],
                "metallicFactor" : 0,
                "roughnessFactor" : 0.8302752375602722
            }
        },
        {
            "doubleSided" : true,
            "extensions" : {
                "KHR_materials_specular" : {
                    "specularColorFactor" : [
                        1.0116342544575654,
                        1.0116342544575654,
                        1.0116342544575654
                    ]
                },
                "KHR_materials_ior" : {
                    "ior" : 1.4500000476837158
                }
            },
            "name" : "\u6750\u8d28.005",
            "pbrMetallicRoughness" : {
                "baseColorFactor" : [
                    0.8000000715255737,
                    0.37325039505958557,
                    0.22109198570251465,
                    1
                ],
                "metallicFactor" : 0,
                "roughnessFactor" : 0.6834862232208252
            }
        },
        {
            "doubleSided" : true,
            "name" : "\u6750\u8d28.001",
            "pbrMetallicRoughness" : {
                "baseColorFactor" : [
                    1,
                    0.907717764377594,
                    0.8296988010406494,
                    1
                ],
                "metallicFactor" : 0,
                "roughnessFactor" : 0
            }
        },
        {
            "doubleSided" : true,
            "name" : "\u6750\u8d28.006",
            "pbrMetallicRoughness" : {
                "baseColorFactor" : [
                    0.0033167237415909767,
                    0.0033167237415909767,
                    0.0033167237415909767,
                    1
                ],
                "metallicFactor" : 0,
                "roughnessFactor" : 0.5
            }
        },
        {
            "doubleSided" : true,
            "name" : "\u6750\u8d28.007",
            "pbrMetallicRoughness" : {
                "baseColorFactor" : [
                    0.8000000715255737,
                    0.2222064882516861,
                    0.6269211173057556,
                    1
                ],
                "metallicFactor" : 0,
                "roughnessFactor" : 0.5
            }
        },
        {
            "doubleSided" : true,
            "name" : "\u6750\u8d28.002",
            "pbrMetallicRoughness" : {
                "baseColorFactor" : [
                    0.07324418425559998,
                    0.8000000715255737,
                    0.754546046257019,
                    1
                ],
                "metallicFactor" : 0,
                "roughnessFactor" : 0.5
            }
        },
        {
            "doubleSided" : true,
            "name" : "\u6750\u8d28.004",
            "pbrMetallicRoughness" : {
                "baseColorFactor" : [
                    1,
                    0.31725722551345825,
                    0.32323575019836426,
                    1
                ],
                "metallicFactor" : 0,
                "roughnessFactor" : 0.5
            }
        }
    ],
    "meshes" : [
        {
            "name" : "\u7acb\u65b9\u4f53",
            "primitives" : [
                {
                    "attributes" : {
                        "POSITION" : 0,
                        "NORMAL" : 1
                    },
                    "indices" : 2,
                    "material" : 0
                }
            ]
        },
        {
            "name" : "\u5706\u73af",
            "primitives" : [
                {
                    "attributes" : {
                        "POSITION" : 3,
                        "NORMAL" : 4
                    },
                    "indices" : 5,
                    "material" : 1
                }
            ]
        },
        {
            "name" : "\u7403\u4f53.001",
            "primitives" : [
                {
                    "attributes" : {
                        "POSITION" : 6,
                        "NORMAL" : 7,
                        "TEXCOORD_0" : 8
                    },
                    "indices" : 9,
                    "material" : 2
                },
                {
                    "attributes" : {
                        "POSITION" : 10,
                        "NORMAL" : 11,
                        "TEXCOORD_0" : 12
                    },
                    "indices" : 13,
                    "material" : 3
                },
                {
                    "attributes" : {
                        "POSITION" : 14,
                        "NORMAL" : 15,
                        "TEXCOORD_0" : 16
                    },
                    "indices" : 17,
                    "material" : 4
                }
            ]
        },
        {
            "name" : "\u7403\u4f53.002",
            "primitives" : [
                {
                    "attributes" : {
                        "POSITION" : 18,
                        "NORMAL" : 19,
                        "TEXCOORD_0" : 20
                    },
                    "indices" : 21,
                    "material" : 5
                }
            ]
        },
        {
            "name" : "\u7acb\u65b9\u4f53.001",
            "primitives" : [
                {
                    "attributes" : {
                        "POSITION" : 22,
                        "NORMAL" : 23,
                        "TEXCOORD_0" : 24
                    },
                    "indices" : 25
                }
            ]
        },
        {
            "name" : "\u7acb\u65b9\u4f53.002",
            "primitives" : [
                {
                    "attributes" : {
                        "POSITION" : 26,
                        "NORMAL" : 27,
                        "TEXCOORD_0" : 28
                    },
                    "indices" : 29,
                    "material" : 6
                }
            ]
        }
    ],
    "accessors" : [
        {
            "bufferView" : 0,
            "componentType" : 5126,
            "count" : 191912,
            "max" : [
                2.8478405475616455,
                3.4189836978912354,
                1.299713134765625
            ],
            "min" : [
                -3.9552316665649414,
                -1.1133562326431274,
                -1.2939811944961548
            ],
            "type" : "VEC3"
        },
        {
            "bufferView" : 1,
            "componentType" : 5126,
            "count" : 191912,
            "type" : "VEC3"
        },
        {
            "bufferView" : 2,
            "componentType" : 5125,
            "count" : 287868,
            "type" : "SCALAR"
        },
        {
            "bufferView" : 3,
            "componentType" : 5126,
            "count" : 11824,
            "max" : [
                -0.9174425005912781,
                2.69828462600708,
                0.8765339255332947
            ],
            "min" : [
                -3.674558639526367,
                -0.060333918780088425,
                -0.9462607502937317
            ],
            "type" : "VEC3"
        },
        {
            "bufferView" : 4,
            "componentType" : 5126,
            "count" : 11824,
            "type" : "VEC3"
        },
        {
            "bufferView" : 5,
            "componentType" : 5123,
            "count" : 17736,
            "type" : "SCALAR"
        },
        {
            "bufferView" : 6,
            "componentType" : 5126,
            "count" : 1760,
            "max" : [
                0.9999997019767761,
                0.9238795042037964,
                0.9999993443489075
            ],
            "min" : [
                -0.9999990463256836,
                -1,
                -1
            ],
            "type" : "VEC3"
        },
        {
            "bufferView" : 7,
            "componentType" : 5126,
            "count" : 1760,
            "type" : "VEC3"
        },
        {
            "bufferView" : 8,
            "componentType" : 5126,
            "count" : 1760,
            "type" : "VEC2"
        },
        {
            "bufferView" : 9,
            "componentType" : 5123,
            "count" : 2592,
            "type" : "SCALAR"
        },
        {
            "bufferView" : 10,
            "componentType" : 5126,
            "count" : 96,
            "max" : [
                0.19509026408195496,
                1,
                0.195090189576149
            ],
            "min" : [
                -0.1950901448726654,
                0.9807852506637573,
                -0.19509010016918182
            ],
            "type" : "VEC3"
        },
        {
            "bufferView" : 11,
            "componentType" : 5126,
            "count" : 96,
            "type" : "VEC3"
        },
        {
            "bufferView" : 12,
            "componentType" : 5126,
            "count" : 96,
            "type" : "VEC2"
        },
        {
            "bufferView" : 13,
            "componentType" : 5123,
            "count" : 96,
            "type" : "SCALAR"
        },
        {
            "bufferView" : 14,
            "componentType" : 5126,
            "count" : 128,
            "max" : [
                0.3826833963394165,
                0.9807852506637573,
                0.38268333673477173
            ],
            "min" : [
                -0.38268324732780457,
                0.9238795042037964,
                -0.3826832175254822
            ],
            "type" : "VEC3"
        },
        {
            "bufferView" : 15,
            "componentType" : 5126,
            "count" : 128,
            "type" : "VEC3"
        },
        {
            "bufferView" : 16,
            "componentType" : 5126,
            "count" : 128,
            "type" : "VEC2"
        },
        {
            "bufferView" : 17,
            "componentType" : 5123,
            "count" : 192,
            "type" : "SCALAR"
        },
        {
            "bufferView" : 18,
            "componentType" : 5126,
            "count" : 864,
            "max" : [
                0.8314694166183472,
                1,
                0.8314692974090576
            ],
            "min" : [
                -0.8314691781997681,
                0.5555702447891235,
                -0.8314695954322815
            ],
            "type" : "VEC3"
        },
        {
            "bufferView" : 19,
            "componentType" : 5126,
            "count" : 864,
            "type" : "VEC3"
        },
        {
            "bufferView" : 20,
            "componentType" : 5126,
            "count" : 864,
            "type" : "VEC2"
        },
        {
            "bufferView" : 21,
            "componentType" : 5123,
            "count" : 1248,
            "type" : "SCALAR"
        },
        {
            "bufferView" : 22,
            "componentType" : 5126,
            "count" : 19,
            "max" : [
                -1.7030127048492432,
                2.191943883895874,
                1.0604727268218994
            ],
            "min" : [
                -3.7030129432678223,
                -1,
                -1
            ],
            "type" : "VEC3"
        },
        {
            "bufferView" : 23,
            "componentType" : 5126,
            "count" : 19,
            "type" : "VEC3"
        },
        {
            "bufferView" : 24,
            "componentType" : 5126,
            "count" : 19,
            "type" : "VEC2"
        },
        {
            "bufferView" : 25,
            "componentType" : 5123,
            "count" : 60,
            "type" : "SCALAR"
        },
        {
            "bufferView" : 26,
            "componentType" : 5126,
            "count" : 24,
            "max" : [
                0.9999997019767761,
                1,
                1
            ],
            "min" : [
                -1,
                -1,
                -1
            ],
            "type" : "VEC3"
        },
        {
            "bufferView" : 27,
            "componentType" : 5126,
            "count" : 24,
            "type" : "VEC3"
        },
        {
            "bufferView" : 28,
            "componentType" : 5126,
            "count" : 24,
            "type" : "VEC2"
        },
        {
            "bufferView" : 29,
            "componentType" : 5123,
            "count" : 36,
            "type" : "SCALAR"
        }
    ],
    "bufferViews" : [
        {
            "buffer" : 0,
            "byteLength" : 2302944,
            "byteOffset" : 0,
            "target" : 34962
        },
        {
            "buffer" : 0,
            "byteLength" : 2302944,
            "byteOffset" : 2302944,
            "target" : 34962
        },
        {
            "buffer" : 0,
            "byteLength" : 1151472,
            "byteOffset" : 4605888,
            "target" : 34963
        },
        {
            "buffer" : 0,
            "byteLength" : 141888,
            "byteOffset" : 5757360,
            "target" : 34962
        },
        {
            "buffer" : 0,
            "byteLength" : 141888,
            "byteOffset" : 5899248,
            "target" : 34962
        },
        {
            "buffer" : 0,
            "byteLength" : 35472,
            "byteOffset" : 6041136,
            "target" : 34963
        },
        {
            "buffer" : 0,
            "byteLength" : 21120,
            "byteOffset" : 6076608,
            "target" : 34962
        },
        {
            "buffer" : 0,
            "byteLength" : 21120,
            "byteOffset" : 6097728,
            "target" : 34962
        },
        {
            "buffer" : 0,
            "byteLength" : 14080,
            "byteOffset" : 6118848,
            "target" : 34962
        },
        {
            "buffer" : 0,
            "byteLength" : 5184,
            "byteOffset" : 6132928,
            "target" : 34963
        },
        {
            "buffer" : 0,
            "byteLength" : 1152,
            "byteOffset" : 6138112,
            "target" : 34962
        },
        {
            "buffer" : 0,
            "byteLength" : 1152,
            "byteOffset" : 6139264,
            "target" : 34962
        },
        {
            "buffer" : 0,
            "byteLength" : 768,
            "byteOffset" : 6140416,
            "target" : 34962
        },
        {
            "buffer" : 0,
            "byteLength" : 192,
            "byteOffset" : 6141184,
            "target" : 34963
        },
        {
            "buffer" : 0,
            "byteLength" : 1536,
            "byteOffset" : 6141376,
            "target" : 34962
        },
        {
            "buffer" : 0,
            "byteLength" : 1536,
            "byteOffset" : 6142912,
            "target" : 34962
        },
        {
            "buffer" : 0,
            "byteLength" : 1024,
            "byteOffset" : 6144448,
            "target" : 34962
        },
        {
            "buffer" : 0,
            "byteLength" : 384,
            "byteOffset" : 6145472,
            "target" : 34963
        },
        {
            "buffer" : 0,
            "byteLength" : 10368,
            "byteOffset" : 6145856,
            "target" : 34962
        },
        {
            "buffer" : 0,
            "byteLength" : 10368,
            "byteOffset" : 6156224,
            "target" : 34962
        },
        {
            "buffer" : 0,
            "byteLength" : 6912,
            "byteOffset" : 6166592,
            "target" : 34962
        },
        {
            "buffer" : 0,
            "byteLength" : 2496,
            "byteOffset" : 6173504,
            "target" : 34963
        },
        {
            "buffer" : 0,
            "byteLength" : 228,
            "byteOffset" : 6176000,
            "target" : 34962
        },
        {
            "buffer" : 0,
            "byteLength" : 228,
            "byteOffset" : 6176228,
            "target" : 34962
        },
        {
            "buffer" : 0,
            "byteLength" : 152,
            "byteOffset" : 6176456,
            "target" : 34962
        },
        {
            "buffer" : 0,
            "byteLength" : 120,
            "byteOffset" : 6176608,
            "target" : 34963
        },
        {
            "buffer" : 0,
            "byteLength" : 288,
            "byteOffset" : 6176728,
            "target" : 34962
        },
        {
            "buffer" : 0,
            "byteLength" : 288,
            "byteOffset" : 6177016,
            "target" : 34962
        },
        {
            "buffer" : 0,
            "byteLength" : 192,
            "byteOffset" : 6177304,
            "target" : 34962
        },
        {
            "buffer" : 0,
            "byteLength" : 72,
            "byteOffset" : 6177496,
            "target" : 34963
        }
    ],
    "buffers" : [
        {
            "byteLength" : 6177568,
            "uri" : "Blender_Project_Files_V3.bin"
        }
    ]
}
